<?xml version="1.0" encoding="UTF-8"?>
<svg xmlns="http://www.w3.org/2000/svg" xmlns:xlink="http://www.w3.org/1999/xlink" viewBox="0 0 512 512" width="512" height="512" preserveAspectRatio="xMidYMid meet"><defs><clipPath id="__lottie_element_220"><rect width="512" height="512" x="0" y="0"></rect></clipPath></defs><g clip-path="url(#__lottie_element_220)"><g transform="matrix(1,0,0,1,256,395)" opacity="1" style="display: block;"><g opacity="1" transform="matrix(1,0,0,1,0,0)"><path fill="rgb(5,7,10)" fill-opacity="1" d=" M0,-29 C57.949501037597656,-29 105,-16.00510025024414 105,0 C105,16.00510025024414 57.949501037597656,29 0,29 C-57.949501037597656,29 -105,16.00510025024414 -105,0 C-105,-16.00510025024414 -57.949501037597656,-29 0,-29z"></path></g><g opacity="1" transform="matrix(1,0,0,1,0,0)"><path fill="rgb(10,15,20)" fill-opacity="1" d=" M0,-42.5 C77.26599884033203,-42.5 140,-23.45574951171875 140,0 C140,23.45574951171875 77.26599884033203,42.5 0,42.5 C-77.26599884033203,42.5 -140,23.45574951171875 -140,0 C-140,-23.45574951171875 -77.26599884033203,-42.5 0,-42.5z"></path></g><g opacity="0" transform="matrix(1,0,0,1,0,0)"><path fill="rgb(140,249,198)" fill-opacity="1" d=" M0,0 C0,0 0,0 0,0 C0,0 0,0 0,0 C0,0 0,0 0,0 C0,0 0,0 0,0z"></path></g></g><g transform="matrix(1,0,0,1,256,320)" opacity="1" style="display: block;"><g opacity="1" transform="matrix(1,0,0,1,0,0)"><path stroke-linecap="round" stroke-linejoin="round" fill-opacity="0" stroke="rgb(15,20,28)" stroke-opacity="1" stroke-width="2" d=" M0,-73 C60.70899963378906,-73 110,-61.79750061035156 110,-48 C110,-34.20249938964844 60.70899963378906,-23 0,-23 C-60.70899963378906,-23 -110,-34.20249938964844 -110,-48 C-110,-61.79750061035156 -60.70899963378906,-73 0,-73z"></path><path fill="rgb(2,10,7)" fill-opacity="1" d=" M0,-73 C60.70899963378906,-73 110,-61.79750061035156 110,-48 C110,-34.20249938964844 60.70899963378906,-23 0,-23 C-60.70899963378906,-23 -110,-34.20249938964844 -110,-48 C-110,-61.79750061035156 -60.70899963378906,-73 0,-73z"></path></g><g opacity="1" transform="matrix(1,0,0,1,0,0)"><path fill="rgb(140,249,198)" fill-opacity="0.65" d=" M0,-69 C55.189998626708984,-69 100,-59.589900970458984 100,-48 C100,-36.410099029541016 55.189998626708984,-27 0,-27 C-55.189998626708984,-27 -100,-36.410099029541016 -100,-48 C-100,-59.589900970458984 -55.189998626708984,-69 0,-69z"></path></g><g opacity="1" transform="matrix(1,0,0,1,0,0)"><path stroke-linecap="round" stroke-linejoin="round" fill-opacity="0" stroke="rgb(15,20,28)" stroke-opacity="1" stroke-width="2.6" d=" M-125,-45 C-125,-45 125,-45 125,-45 C133,-45 130,47 130,55 C130,63 120,75 112,75 C112,75 -112,75 -112,75 C-120,75 -138,55 -130,55 C-130,47 -133,-45 -125,-45z"></path><path fill="rgb(25,137,81)" fill-opacity="1" d=" M-125,-45 C-125,-45 125,-45 125,-45 C133,-45 130,47 130,55 C130,63 120,75 112,75 C112,75 -112,75 -112,75 C-120,75 -138,55 -130,55 C-130,47 -133,-45 -125,-45z"></path></g><g opacity="1" transform="matrix(1,0,0,1,0,0)"><path stroke-linecap="round" stroke-linejoin="round" fill-opacity="0" stroke="rgb(15,20,28)" stroke-opacity="1" stroke-width="1.6" d=" M-129,24 C-129,24 129,24 129,24 M-127,-12 C-127,-12 127,-12 127,-12"></path><path stroke-linecap="round" stroke-linejoin="round" fill-opacity="0" stroke="rgb(15,20,28)" stroke-opacity="1" stroke-width="1.6" d=" M-127,-12 C-127,-12 127,-12 127,-12"></path></g><g opacity="1" transform="matrix(1,0,0,1,0,0)"><path fill="rgb(11,76,45)" fill-opacity="1" d=" M-129,24 C-129,24 129,24 129,24 C129,24 112,75 112,75 C112,75 -112,75 -112,75 C-112,75 -129,24 -129,24z"></path></g><g opacity="1" transform="matrix(1,0,0,1,0,0)"><path fill="rgb(40,173,107)" fill-opacity="1" d=" M-125,-45 C-125,-45 125,-45 125,-45 C125,-45 127,-12 127,-12 C127,-12 -127,-12 -127,-12 C-127,-12 -125,-45 -125,-45z"></path></g><g opacity="1" transform="matrix(1,0,0,1,0,0)"><path stroke-linecap="round" stroke-linejoin="round" fill-opacity="0" stroke="rgb(244,183,40)" stroke-opacity="1" stroke-width="3.8" d=" M-125,-82 C-125,-82 -40,-98 0,-98 C40,-98 125,-92 125,-82 C135,-82 125,-45 125,-45 C125,-45 0,-45 0,-45 C0,-45 -135,-45 -125,-45 C-135,-45 -135,-82 -125,-82z"></path><path fill="rgb(86,25,114)" fill-opacity="1" d=" M-125,-82 C-125,-82 -40,-98 0,-98 C40,-98 125,-92 125,-82 C135,-82 125,-45 125,-45 C125,-45 0,-45 0,-45 C0,-45 -135,-45 -125,-45 C-135,-45 -135,-82 -125,-82z"></path></g><g opacity="0" transform="matrix(1,0,0,1,0,0)"><path stroke-linecap="round" stroke-linejoin="round" fill-opacity="0" stroke="rgb(15,20,28)" stroke-opacity="1" stroke-width="2.6" d=" M-125,-45 C-125,-60 -125,-63 -125,-78 C-125,-93 -55,-106 0,-106 C55,-106 125,-93 125,-78 C125,-63 125,-45 125,-45 C125,-45 -125,-45 -125,-45z"></path><path fill="rgb(40,173,107)" fill-opacity="1" d=" M-125,-45 C-125,-60 -125,-63 -125,-78 C-125,-93 -55,-106 0,-106 C55,-106 125,-93 125,-78 C125,-63 125,-45 125,-45 C125,-45 -125,-45 -125,-45z"></path></g><g opacity="0" transform="matrix(1,0,0,1,0,0)"><path fill="rgb(255,249,216)" fill-opacity="1" d=" M68,-78.25 C69.7936782836914,-78.25 71.25,-76.7936782836914 71.25,-75 C71.25,-73.2063217163086 69.7936782836914,-71.75 68,-71.75 C66.2063217163086,-71.75 64.75,-73.2063217163086 64.75,-75 C64.75,-76.7936782836914 66.2063217163086,-78.25 68,-78.25z M-68,-78.25 C-66.2063217163086,-78.25 -64.75,-76.7936782836914 -64.75,-75 C-64.75,-73.2063217163086 -66.2063217163086,-71.75 -68,-71.75 C-69.7936782836914,-71.75 -71.25,-73.2063217163086 -71.25,-75 C-71.25,-76.7936782836914 -69.7936782836914,-78.25 -68,-78.25z M56,-100 C56,-100 78,-100 78,-100 C78,-100 82,-45 82,-45 C82,-45 60,-45 60,-45 C60,-45 56,-100 56,-100z M-78,-100 C-78,-100 -56,-100 -56,-100 C-56,-100 -60,-45 -60,-45 C-60,-45 -82,-45 -82,-45 C-82,-45 -78,-100 -78,-100z"></path><path fill="rgb(255,249,216)" fill-opacity="1" d=" M-68,-78.25 C-66.2063217163086,-78.25 -64.75,-76.7936782836914 -64.75,-75 C-64.75,-73.2063217163086 -66.2063217163086,-71.75 -68,-71.75 C-69.7936782836914,-71.75 -71.25,-73.2063217163086 -71.25,-75 C-71.25,-76.7936782836914 -69.7936782836914,-78.25 -68,-78.25z M56,-100 C56,-100 78,-100 78,-100 C78,-100 82,-45 82,-45 C82,-45 60,-45 60,-45 C60,-45 56,-100 56,-100z M-78,-100 C-78,-100 -56,-100 -56,-100 C-56,-100 -60,-45 -60,-45 C-60,-45 -82,-45 -82,-45 C-82,-45 -78,-100 -78,-100z"></path><path stroke-linecap="round" stroke-linejoin="round" fill-opacity="0" stroke="rgb(15,20,28)" stroke-opacity="1" stroke-width="1.6" d=" M56,-100 C56,-100 78,-100 78,-100 C78,-100 82,-45 82,-45 C82,-45 60,-45 60,-45 C60,-45 56,-100 56,-100z M-78,-100 C-78,-100 -56,-100 -56,-100 C-56,-100 -60,-45 -60,-45 C-60,-45 -82,-45 -82,-45 C-82,-45 -78,-100 -78,-100z"></path><path fill="rgb(244,183,40)" fill-opacity="1" d=" M56,-100 C56,-100 78,-100 78,-100 C78,-100 82,-45 82,-45 C82,-45 60,-45 60,-45 C60,-45 56,-100 56,-100z M-78,-100 C-78,-100 -56,-100 -56,-100 C-56,-100 -60,-45 -60,-45 C-60,-45 -82,-45 -82,-45 C-82,-45 -78,-100 -78,-100z"></path><path stroke-linecap="round" stroke-linejoin="round" fill-opacity="0" stroke="rgb(15,20,28)" stroke-opacity="1" stroke-width="1.6" d=" M-78,-100 C-78,-100 -56,-100 -56,-100 C-56,-100 -60,-45 -60,-45 C-60,-45 -82,-45 -82,-45 C-82,-45 -78,-100 -78,-100z"></path><path fill="rgb(244,183,40)" fill-opacity="1" d=" M-78,-100 C-78,-100 -56,-100 -56,-100 C-56,-100 -60,-45 -60,-45 C-60,-45 -82,-45 -82,-45 C-82,-45 -78,-100 -78,-100z"></path></g><g opacity="1" transform="matrix(1,0,0,1,0,0)"><path fill="rgb(255,249,216)" fill-opacity="1" d=" M73,48.75 C74.7936782836914,48.75 76.25,50.20632553100586 76.25,52 C76.25,53.79367446899414 74.7936782836914,55.25 73,55.25 C71.2063217163086,55.25 69.75,53.79367446899414 69.75,52 C69.75,50.20632553100586 71.2063217163086,48.75 73,48.75z M72,4.75 C73.7936782836914,4.75 75.25,6.206325054168701 75.25,8 C75.25,9.793675422668457 73.7936782836914,11.25 72,11.25 C70.2063217163086,11.25 68.75,9.793675422668457 68.75,8 C68.75,6.206325054168701 70.2063217163086,4.75 72,4.75z M71,-33.25 C72.7936782836914,-33.25 74.25,-31.79367446899414 74.25,-30 C74.25,-28.20632553100586 72.7936782836914,-26.75 71,-26.75 C69.2063217163086,-26.75 67.75,-28.20632553100586 67.75,-30 C67.75,-31.79367446899414 69.2063217163086,-33.25 71,-33.25z M60,-45 C60,-45 82,-45 82,-45 C82,-45 84,70 84,70 C84,70 62,70 62,70 C62,70 60,-45 60,-45z"></path><path fill="rgb(255,249,216)" fill-opacity="1" d=" M72,4.75 C73.7936782836914,4.75 75.25,6.206325054168701 75.25,8 C75.25,9.793675422668457 73.7936782836914,11.25 72,11.25 C70.2063217163086,11.25 68.75,9.793675422668457 68.75,8 C68.75,6.206325054168701 70.2063217163086,4.75 72,4.75z M71,-33.25 C72.7936782836914,-33.25 74.25,-31.79367446899414 74.25,-30 C74.25,-28.20632553100586 72.7936782836914,-26.75 71,-26.75 C69.2063217163086,-26.75 67.75,-28.20632553100586 67.75,-30 C67.75,-31.79367446899414 69.2063217163086,-33.25 71,-33.25z M60,-45 C60,-45 82,-45 82,-45 C82,-45 84,70 84,70 C84,70 62,70 62,70 C62,70 60,-45 60,-45z"></path><path fill="rgb(255,249,216)" fill-opacity="1" d=" M71,-33.25 C72.7936782836914,-33.25 74.25,-31.79367446899414 74.25,-30 C74.25,-28.20632553100586 72.7936782836914,-26.75 71,-26.75 C69.2063217163086,-26.75 67.75,-28.20632553100586 67.75,-30 C67.75,-31.79367446899414 69.2063217163086,-33.25 71,-33.25z M60,-45 C60,-45 82,-45 82,-45 C82,-45 84,70 84,70 C84,70 62,70 62,70 C62,70 60,-45 60,-45z"></path><path stroke-linecap="round" stroke-linejoin="round" fill-opacity="0" stroke="rgb(15,20,28)" stroke-opacity="1" stroke-width="1.8" d=" M60,-45 C60,-45 82,-45 82,-45 C82,-45 84,70 84,70 C84,70 62,70 62,70 C62,70 60,-45 60,-45z"></path><path fill="rgb(244,183,40)" fill-opacity="1" d=" M60,-45 C60,-45 82,-45 82,-45 C82,-45 84,70 84,70 C84,70 62,70 62,70 C62,70 60,-45 60,-45z"></path></g><g opacity="1" transform="matrix(1,0,0,1,0,0)"><path fill="rgb(255,249,216)" fill-opacity="1" d=" M-73,48.75 C-71.2063217163086,48.75 -69.75,50.20632553100586 -69.75,52 C-69.75,53.79367446899414 -71.2063217163086,55.25 -73,55.25 C-74.7936782836914,55.25 -76.25,53.79367446899414 -76.25,52 C-76.25,50.20632553100586 -74.7936782836914,48.75 -73,48.75z M-72,4.75 C-70.2063217163086,4.75 -68.75,6.206325054168701 -68.75,8 C-68.75,9.793675422668457 -70.2063217163086,11.25 -72,11.25 C-73.7936782836914,11.25 -75.25,9.793675422668457 -75.25,8 C-75.25,6.206325054168701 -73.7936782836914,4.75 -72,4.75z M-71,-33.25 C-69.2063217163086,-33.25 -67.75,-31.79367446899414 -67.75,-30 C-67.75,-28.20632553100586 -69.2063217163086,-26.75 -71,-26.75 C-72.7936782836914,-26.75 -74.25,-28.20632553100586 -74.25,-30 C-74.25,-31.79367446899414 -72.7936782836914,-33.25 -71,-33.25z M-82,-45 C-82,-45 -60,-45 -60,-45 C-60,-45 -62,70 -62,70 C-62,70 -84,70 -84,70 C-84,70 -82,-45 -82,-45z"></path><path fill="rgb(255,249,216)" fill-opacity="1" d=" M-72,4.75 C-70.2063217163086,4.75 -68.75,6.206325054168701 -68.75,8 C-68.75,9.793675422668457 -70.2063217163086,11.25 -72,11.25 C-73.7936782836914,11.25 -75.25,9.793675422668457 -75.25,8 C-75.25,6.206325054168701 -73.7936782836914,4.75 -72,4.75z M-71,-33.25 C-69.2063217163086,-33.25 -67.75,-31.79367446899414 -67.75,-30 C-67.75,-28.20632553100586 -69.2063217163086,-26.75 -71,-26.75 C-72.7936782836914,-26.75 -74.25,-28.20632553100586 -74.25,-30 C-74.25,-31.79367446899414 -72.7936782836914,-33.25 -71,-33.25z M-82,-45 C-82,-45 -60,-45 -60,-45 C-60,-45 -62,70 -62,70 C-62,70 -84,70 -84,70 C-84,70 -82,-45 -82,-45z"></path><path fill="rgb(255,249,216)" fill-opacity="1" d=" M-71,-33.25 C-69.2063217163086,-33.25 -67.75,-31.79367446899414 -67.75,-30 C-67.75,-28.20632553100586 -69.2063217163086,-26.75 -71,-26.75 C-72.7936782836914,-26.75 -74.25,-28.20632553100586 -74.25,-30 C-74.25,-31.79367446899414 -72.7936782836914,-33.25 -71,-33.25z M-82,-45 C-82,-45 -60,-45 -60,-45 C-60,-45 -62,70 -62,70 C-62,70 -84,70 -84,70 C-84,70 -82,-45 -82,-45z"></path><path stroke-linecap="round" stroke-linejoin="round" fill-opacity="0" stroke="rgb(15,20,28)" stroke-opacity="1" stroke-width="1.8" d=" M-82,-45 C-82,-45 -60,-45 -60,-45 C-60,-45 -62,70 -62,70 C-62,70 -84,70 -84,70 C-84,70 -82,-45 -82,-45z"></path><path fill="rgb(244,183,40)" fill-opacity="1" d=" M-82,-45 C-82,-45 -60,-45 -60,-45 C-60,-45 -62,70 -62,70 C-62,70 -84,70 -84,70 C-84,70 -82,-45 -82,-45z"></path></g><g opacity="1" transform="matrix(1,0,0,1,0,0)"><path fill="rgb(15,20,28)" fill-opacity="1" d=" M0,-32 C0,-32 2.5,-32 2.5,-32 C2.5,-32 2,-24 2,-24 C2,-24 -2,-24 -2,-24 C-2,-24 -2.5,-32 -2.5,-32 C-2.5,-32 0,-32 0,-32z M-8,-40 C-8,-40 8,-40 8,-40 C8,-40 6,-26 6,-26 C6,-26 0,-18 0,-18 C0,-18 -6,-26 -6,-26 C-6,-26 -8,-40 -8,-40z M-16,-45 C-16,-45 16,-45 16,-45 C16,-45 12,-24 12,-24 C12,-24 0,-14 0,-14 C0,-14 -12,-24 -12,-24 C-12,-24 -16,-45 -16,-45z"></path><path fill="rgb(255,224,114)" fill-opacity="1" d=" M-8,-40 C-8,-40 8,-40 8,-40 C8,-40 6,-26 6,-26 C6,-26 0,-18 0,-18 C0,-18 -6,-26 -6,-26 C-6,-26 -8,-40 -8,-40z M-16,-45 C-16,-45 16,-45 16,-45 C16,-45 12,-24 12,-24 C12,-24 0,-14 0,-14 C0,-14 -12,-24 -12,-24 C-12,-24 -16,-45 -16,-45z"></path><path stroke-linecap="round" stroke-linejoin="round" fill-opacity="0" stroke="rgb(15,20,28)" stroke-opacity="1" stroke-width="2" d=" M-16,-45 C-16,-45 16,-45 16,-45 C16,-45 12,-24 12,-24 C12,-24 0,-14 0,-14 C0,-14 -12,-24 -12,-24 C-12,-24 -16,-45 -16,-45z"></path><path fill="rgb(244,183,40)" fill-opacity="1" d=" M-16,-45 C-16,-45 16,-45 16,-45 C16,-45 12,-24 12,-24 C12,-24 0,-14 0,-14 C0,-14 -12,-24 -12,-24 C-12,-24 -16,-45 -16,-45z"></path></g><g opacity="1" transform="matrix(1,0,0,1,0,20)"><g opacity="1" transform="matrix(1,0,0,1,0,0)"><path fill="rgb(0,0,0)" fill-opacity="1" d=" M0,-26.579999923706055 C16.3252010345459,-26.579999923706055 29.579999923706055,-13.325201988220215 29.579999923706055,3 C29.579999923706055,19.3252010345459 16.3252010345459,32.58000183105469 0,32.58000183105469 C-16.3252010345459,32.58000183105469 -29.579999923706055,19.3252010345459 -29.579999923706055,3 C-29.579999923706055,-13.325201988220215 -16.3252010345459,-26.579999923706055 0,-26.579999923706055z"></path></g><g opacity="1" transform="matrix(1,0,0,1,0,0)"><path stroke-linecap="round" stroke-linejoin="round" fill-opacity="0" stroke="rgb(5,51,30)" stroke-opacity="1" stroke-width="2" d=" M0,-29 C16.00510025024414,-29 29,-16.00510025024414 29,0 C29,16.00510025024414 16.00510025024414,29 0,29 C-16.00510025024414,29 -29,16.00510025024414 -29,0 C-29,-16.00510025024414 -16.00510025024414,-29 0,-29z"></path><path fill="rgb(28,147,89)" fill-opacity="1" d=" M0,-29 C16.00510025024414,-29 29,-16.00510025024414 29,0 C29,16.00510025024414 16.00510025024414,29 0,29 C-16.00510025024414,29 -29,16.00510025024414 -29,0 C-29,-16.00510025024414 -16.00510025024414,-29 0,-29z"></path></g><g opacity="1" transform="matrix(1,0,0,1,0,0)"><path fill="rgb(45,193,117)" fill-opacity="0.8" d=" M-2,-28.68000030517578 C12.724692344665527,-28.68000030517578 24.68000030517578,-16.72469139099121 24.68000030517578,-2 C24.68000030517578,12.724692344665527 12.724692344665527,24.68000030517578 -2,24.68000030517578 C-16.72469139099121,24.68000030517578 -28.68000030517578,12.724692344665527 -28.68000030517578,-2 C-28.68000030517578,-16.72469139099121 -16.72469139099121,-28.68000030517578 -2,-28.68000030517578z"></path></g><g opacity="1" transform="matrix(1,0,0,1,0,0)"><path stroke-linecap="round" stroke-linejoin="round" fill-opacity="0" stroke="rgb(255,255,255)" stroke-opacity="0.45" stroke-width="3.393" d=" M-19.450000762939453,-19.450000762939453 C-13.949999809265137,-24.950000762939453 -11,-27.5 0,-27.5 C11,-27.5 13.949999809265137,-24.950000762939453 19.450000762939453,-19.450000762939453"></path></g><g opacity="1" transform="matrix(0.3499999940395355,0,0,0.3499999940395355,0,0)"><g opacity="1" transform="matrix(1,0,0,1,0,0)"><path stroke-linecap="round" stroke-linejoin="round" fill-opacity="0" stroke="rgb(255,255,255)" stroke-opacity="1" stroke-width="12.91034482758621" d=" M-23.399999618530273,27.299999237060547 C-28.399999618530273,23.299999237060547 -34.5,12.100000381469727 -34.5,-3.9000000953674316 C-34.5,-17.899999618530273 -17,-27.5 -3,-27.5 C11,-27.5 26.799999237060547,-36.29999923706055 33.79999923706055,-40.29999923706055 C37.79999923706055,-32.29999923706055 39.5,-18 39.5,-8 C39.5,2 35.20000076293945,14 31.200000762939453,22 C27.200000762939453,30 10,35.5 0,35.5 C-10,35.5 -17.399999618530273,29.299999237060547 -23.399999618530273,27.299999237060547 C-23.399999618530273,27.299999237060547 -17.399999618530273,30.299999237060547 -23.399999618530273,27.299999237060547z"></path></g><g opacity="1" transform="matrix(1,0,0,1,0,0)"><path stroke-linecap="round" stroke-linejoin="round" fill-opacity="0" stroke="rgb(255,255,255)" stroke-opacity="1" stroke-width="12.91034482758621" d=" M-23.399999618530273,27.299999237060547 C-27.399999618530273,31.299999237060547 -28,31.5 -32,35.5 C-36,39.5 -37.599998474121094,36.29999923706055 -41.599998474121094,40.29999923706055"></path></g><g opacity="1" transform="matrix(1,0,0,1,0,0)"><path stroke-linecap="round" stroke-linejoin="round" fill-opacity="0" stroke="rgb(255,255,255)" stroke-opacity="1" stroke-width="12.91034482758621" d=" M-22,23 C-16,19 -11,16 -5,12 C1,9 7,6 13,3"></path></g></g></g></g><g transform="matrix(1,0,0,1,260,105)" opacity="1" style="display: block;"><g opacity="1" transform="matrix(1,0,0,1,-12,20)"><g opacity="1" transform="matrix(1,0,0,1,0,0)"><path fill="rgb(255,249,216)" fill-opacity="1" d=" M-2,-4.5 C-0.6202499866485596,-4.5 0.5,-3.3797500133514404 0.5,-2 C0.5,-0.6202499866485596 -0.6202499866485596,0.5 -2,0.5 C-3.3797500133514404,0.5 -4.5,-0.6202499866485596 -4.5,-2 C-4.5,-3.3797500133514404 -3.3797500133514404,-4.5 -2,-4.5z M0,-15 C0,-15 3.819999933242798,-5.260000228881836 3.819999933242798,-5.260000228881836 C3.819999933242798,-5.260000228881836 14.270000457763672,-4.639999866485596 14.270000457763672,-4.639999866485596 C14.270000457763672,-4.639999866485596 6.179999828338623,2.009999990463257 6.179999828338623,2.009999990463257 C6.179999828338623,2.009999990463257 8.819999694824219,12.140000343322754 8.819999694824219,12.140000343322754 C8.819999694824219,12.140000343322754 0,6.5 0,6.5 C0,6.5 -8.819999694824219,12.140000343322754 -8.819999694824219,12.140000343322754 C-8.819999694824219,12.140000343322754 -6.179999828338623,2.009999990463257 -6.179999828338623,2.009999990463257 C-6.179999828338623,2.009999990463257 -14.270000457763672,-4.639999866485596 -14.270000457763672,-4.639999866485596 C-14.270000457763672,-4.639999866485596 -3.819999933242798,-5.260000228881836 -3.819999933242798,-5.260000228881836 C-3.819999933242798,-5.260000228881836 0,-15 0,-15z"></path><path stroke-linecap="round" stroke-linejoin="round" fill-opacity="0" stroke="rgb(15,20,28)" stroke-opacity="1" stroke-width="1.8" d=" M0,-15 C0,-15 3.819999933242798,-5.260000228881836 3.819999933242798,-5.260000228881836 C3.819999933242798,-5.260000228881836 14.270000457763672,-4.639999866485596 14.270000457763672,-4.639999866485596 C14.270000457763672,-4.639999866485596 6.179999828338623,2.009999990463257 6.179999828338623,2.009999990463257 C6.179999828338623,2.009999990463257 8.819999694824219,12.140000343322754 8.819999694824219,12.140000343322754 C8.819999694824219,12.140000343322754 0,6.5 0,6.5 C0,6.5 -8.819999694824219,12.140000343322754 -8.819999694824219,12.140000343322754 C-8.819999694824219,12.140000343322754 -6.179999828338623,2.009999990463257 -6.179999828338623,2.009999990463257 C-6.179999828338623,2.009999990463257 -14.270000457763672,-4.639999866485596 -14.270000457763672,-4.639999866485596 C-14.270000457763672,-4.639999866485596 -3.819999933242798,-5.260000228881836 -3.819999933242798,-5.260000228881836 C-3.819999933242798,-5.260000228881836 0,-15 0,-15z"></path><path fill="rgb(244,183,40)" fill-opacity="1" d=" M0,-15 C0,-15 3.819999933242798,-5.260000228881836 3.819999933242798,-5.260000228881836 C3.819999933242798,-5.260000228881836 14.270000457763672,-4.639999866485596 14.270000457763672,-4.639999866485596 C14.270000457763672,-4.639999866485596 6.179999828338623,2.009999990463257 6.179999828338623,2.009999990463257 C6.179999828338623,2.009999990463257 8.819999694824219,12.140000343322754 8.819999694824219,12.140000343322754 C8.819999694824219,12.140000343322754 0,6.5 0,6.5 C0,6.5 -8.819999694824219,12.140000343322754 -8.819999694824219,12.140000343322754 C-8.819999694824219,12.140000343322754 -6.179999828338623,2.009999990463257 -6.179999828338623,2.009999990463257 C-6.179999828338623,2.009999990463257 -14.270000457763672,-4.639999866485596 -14.270000457763672,-4.639999866485596 C-14.270000457763672,-4.639999866485596 -3.819999933242798,-5.260000228881836 -3.819999933242798,-5.260000228881836 C-3.819999933242798,-5.260000228881836 0,-15 0,-15z"></path></g></g><g opacity="1" transform="matrix(1,0,0,1,6,14)"><g opacity="1" transform="matrix(1,0,0,1,0,0)"><path stroke-linecap="round" stroke-linejoin="round" fill-opacity="0" stroke="rgb(15,20,28)" stroke-opacity="1" stroke-width="1.8" d=" M0,4.5 C0,4.5 14,-3.5 14,-3.5 C14,-3.5 14,8.5 14,8.5 C14,8.5 0,16.5 0,16.5 C0,16.5 0,4.5 0,4.5z"></path><path fill="rgb(96,35,140)" fill-opacity="1" d=" M0,4.5 C0,4.5 14,-3.5 14,-3.5 C14,-3.5 14,8.5 14,8.5 C14,8.5 0,16.5 0,16.5 C0,16.5 0,4.5 0,4.5z"></path></g><g opacity="1" transform="matrix(1,0,0,1,0,0)"><path stroke-linecap="round" stroke-linejoin="round" fill-opacity="0" stroke="rgb(15,20,28)" stroke-opacity="1" stroke-width="1.8" d=" M-14,-3.5 C-14,-3.5 0,4.5 0,4.5 C0,4.5 0,16.5 0,16.5 C0,16.5 -14,8.5 -14,8.5 C-14,8.5 -14,-3.5 -14,-3.5z"></path><path fill="rgb(132,56,178)" fill-opacity="1" d=" M-14,-3.5 C-14,-3.5 0,4.5 0,4.5 C0,4.5 0,16.5 0,16.5 C0,16.5 -14,8.5 -14,8.5 C-14,8.5 -14,-3.5 -14,-3.5z"></path></g><g opacity="1" transform="matrix(1,0,0,1,0,0)"><path stroke-linecap="round" stroke-linejoin="round" fill-opacity="0" stroke="rgb(15,20,28)" stroke-opacity="1" stroke-width="1.8" d=" M0,-11.5 C0,-11.5 14,-3.5 14,-3.5 C14,-3.5 0,4.5 0,4.5 C0,4.5 -14,-3.5 -14,-3.5 C-14,-3.5 0,-11.5 0,-11.5z"></path><path fill="rgb(191,89,242)" fill-opacity="1" d=" M0,-11.5 C0,-11.5 14,-3.5 14,-3.5 C14,-3.5 0,4.5 0,4.5 C0,4.5 -14,-3.5 -14,-3.5 C-14,-3.5 0,-11.5 0,-11.5z"></path></g></g><g opacity="1" transform="matrix(1,0,0,1,16,-20)"><g opacity="1" transform="matrix(1,0,0,1,0,0)"><path stroke-linecap="round" stroke-linejoin="round" fill-opacity="0" stroke="rgb(15,20,28)" stroke-opacity="1" stroke-width="1.8" d=" M0,4.949999809265137 C0,4.949999809265137 15.399999618530273,-3.8499999046325684 15.399999618530273,-3.8499999046325684 C15.399999618530273,-3.8499999046325684 15.399999618530273,9.350000381469727 15.399999618530273,9.350000381469727 C15.399999618530273,9.350000381469727 0,18.149999618530273 0,18.149999618530273 C0,18.149999618530273 0,4.949999809265137 0,4.949999809265137z"></path><path fill="rgb(20,114,140)" fill-opacity="1" d=" M0,4.949999809265137 C0,4.949999809265137 15.399999618530273,-3.8499999046325684 15.399999618530273,-3.8499999046325684 C15.399999618530273,-3.8499999046325684 15.399999618530273,9.350000381469727 15.399999618530273,9.350000381469727 C15.399999618530273,9.350000381469727 0,18.149999618530273 0,18.149999618530273 C0,18.149999618530273 0,4.949999809265137 0,4.949999809265137z"></path></g><g opacity="1" transform="matrix(1,0,0,1,0,0)"><path stroke-linecap="round" stroke-linejoin="round" fill-opacity="0" stroke="rgb(15,20,28)" stroke-opacity="1" stroke-width="1.8" d=" M-15.399999618530273,-3.8499999046325684 C-15.399999618530273,-3.8499999046325684 0,4.949999809265137 0,4.949999809265137 C0,4.949999809265137 0,18.149999618530273 0,18.149999618530273 C0,18.149999618530273 -15.399999618530273,9.350000381469727 -15.399999618530273,9.350000381469727 C-15.399999618530273,9.350000381469727 -15.399999618530273,-3.8499999046325684 -15.399999618530273,-3.8499999046325684z"></path><path fill="rgb(30,153,178)" fill-opacity="1" d=" M-15.399999618530273,-3.8499999046325684 C-15.399999618530273,-3.8499999046325684 0,4.949999809265137 0,4.949999809265137 C0,4.949999809265137 0,18.149999618530273 0,18.149999618530273 C0,18.149999618530273 -15.399999618530273,9.350000381469727 -15.399999618530273,9.350000381469727 C-15.399999618530273,9.350000381469727 -15.399999618530273,-3.8499999046325684 -15.399999618530273,-3.8499999046325684z"></path></g><g opacity="1" transform="matrix(1,0,0,1,0,0)"><path stroke-linecap="round" stroke-linejoin="round" fill-opacity="0" stroke="rgb(15,20,28)" stroke-opacity="1" stroke-width="1.8" d=" M0,-12.649999618530273 C0,-12.649999618530273 15.399999618530273,-3.8499999046325684 15.399999618530273,-3.8499999046325684 C15.399999618530273,-3.8499999046325684 0,4.949999809265137 0,4.949999809265137 C0,4.949999809265137 -15.399999618530273,-3.8499999046325684 -15.399999618530273,-3.8499999046325684 C-15.399999618530273,-3.8499999046325684 0,-12.649999618530273 0,-12.649999618530273z"></path><path fill="rgb(51,216,242)" fill-opacity="1" d=" M0,-12.649999618530273 C0,-12.649999618530273 15.399999618530273,-3.8499999046325684 15.399999618530273,-3.8499999046325684 C15.399999618530273,-3.8499999046325684 0,4.949999809265137 0,4.949999809265137 C0,4.949999809265137 -15.399999618530273,-3.8499999046325684 -15.399999618530273,-3.8499999046325684 C-15.399999618530273,-3.8499999046325684 0,-12.649999618530273 0,-12.649999618530273z"></path></g></g><g opacity="1" transform="matrix(1,0,0,1,-24,-14)"><g opacity="1" transform="matrix(1,0,0,1,0,0)"><path stroke-linecap="round" stroke-linejoin="round" fill-opacity="0" stroke="rgb(15,20,28)" stroke-opacity="1" stroke-width="1.8" d=" M0,5.849999904632568 C0,5.849999904632568 18.200000762939453,-4.550000190734863 18.200000762939453,-4.550000190734863 C18.200000762939453,-4.550000190734863 18.200000762939453,11.050000190734863 18.200000762939453,11.050000190734863 C18.200000762939453,11.050000190734863 0,21.450000762939453 0,21.450000762939453 C0,21.450000762939453 0,5.849999904632568 0,5.849999904632568z"></path><path fill="rgb(183,132,12)" fill-opacity="1" d=" M0,5.849999904632568 C0,5.849999904632568 18.200000762939453,-4.550000190734863 18.200000762939453,-4.550000190734863 C18.200000762939453,-4.550000190734863 18.200000762939453,11.050000190734863 18.200000762939453,11.050000190734863 C18.200000762939453,11.050000190734863 0,21.450000762939453 0,21.450000762939453 C0,21.450000762939453 0,5.849999904632568 0,5.849999904632568z"></path></g><g opacity="1" transform="matrix(1,0,0,1,0,0)"><path stroke-linecap="round" stroke-linejoin="round" fill-opacity="0" stroke="rgb(15,20,28)" stroke-opacity="1" stroke-width="1.8" d=" M-18.200000762939453,-4.550000190734863 C-18.200000762939453,-4.550000190734863 0,5.849999904632568 0,5.849999904632568 C0,5.849999904632568 0,21.450000762939453 0,21.450000762939453 C0,21.450000762939453 -18.200000762939453,11.050000190734863 -18.200000762939453,11.050000190734863 C-18.200000762939453,11.050000190734863 -18.200000762939453,-4.550000190734863 -18.200000762939453,-4.550000190734863z"></path><path fill="rgb(224,173,25)" fill-opacity="1" d=" M-18.200000762939453,-4.550000190734863 C-18.200000762939453,-4.550000190734863 0,5.849999904632568 0,5.849999904632568 C0,5.849999904632568 0,21.450000762939453 0,21.450000762939453 C0,21.450000762939453 -18.200000762939453,11.050000190734863 -18.200000762939453,11.050000190734863 C-18.200000762939453,11.050000190734863 -18.200000762939453,-4.550000190734863 -18.200000762939453,-4.550000190734863z"></path></g><g opacity="1" transform="matrix(1,0,0,1,0,0)"><path stroke-linecap="round" stroke-linejoin="round" fill-opacity="0" stroke="rgb(15,20,28)" stroke-opacity="1" stroke-width="1.8" d=" M0,-14.949999809265137 C0,-14.949999809265137 18.200000762939453,-4.550000190734863 18.200000762939453,-4.550000190734863 C18.200000762939453,-4.550000190734863 0,5.849999904632568 0,5.849999904632568 C0,5.849999904632568 -18.200000762939453,-4.550000190734863 -18.200000762939453,-4.550000190734863 C-18.200000762939453,-4.550000190734863 0,-14.949999809265137 0,-14.949999809265137z"></path><path fill="rgb(255,214,51)" fill-opacity="1" d=" M0,-14.949999809265137 C0,-14.949999809265137 18.200000762939453,-4.550000190734863 18.200000762939453,-4.550000190734863 C18.200000762939453,-4.550000190734863 0,5.849999904632568 0,5.849999904632568 C0,5.849999904632568 -18.200000762939453,-4.550000190734863 -18.200000762939453,-4.550000190734863 C-18.200000762939453,-4.550000190734863 0,-14.949999809265137 0,-14.949999809265137z"></path></g></g></g><g transform="matrix(1.124869704246521,0.2390984445810318,-0.2390984445810318,1.124869704246521,124.78196716308594,127.50260925292969)" opacity="1" style="display: block;"><g opacity="1" transform="matrix(1,0,0,1,0,0)"><path fill="rgb(249,158,183)" fill-opacity="1" d=" M24,-29 C27.863300323486328,-29 31,-25.863300323486328 31,-22 C31,-18.136699676513672 27.863300323486328,-15 24,-15 C20.136699676513672,-15 17,-18.136699676513672 17,-22 C17,-25.863300323486328 20.136699676513672,-29 24,-29z M24,-34 C30.622800827026367,-34 36,-28.622800827026367 36,-22 C36,-15.37720012664795 30.622800827026367,-10 24,-10 C17.377199172973633,-10 12,-15.37720012664795 12,-22 C12,-28.622800827026367 17.377199172973633,-34 24,-34z"></path><path stroke-linecap="round" stroke-linejoin="round" fill-opacity="0" stroke="rgb(15,20,28)" stroke-opacity="1" stroke-width="2.2" d=" M24,-34 C30.622800827026367,-34 36,-28.622800827026367 36,-22 C36,-15.37720012664795 30.622800827026367,-10 24,-10 C17.377199172973633,-10 12,-15.37720012664795 12,-22 C12,-28.622800827026367 17.377199172973633,-34 24,-34z"></path><path fill="rgb(224,147,76)" fill-opacity="1" d=" M24,-34 C30.622800827026367,-34 36,-28.622800827026367 36,-22 C36,-15.37720012664795 30.622800827026367,-10 24,-10 C17.377199172973633,-10 12,-15.37720012664795 12,-22 C12,-28.622800827026367 17.377199172973633,-34 24,-34z"></path></g><g opacity="1" transform="matrix(1,0,0,1,0,0)"><path fill="rgb(249,158,183)" fill-opacity="1" d=" M-24,-29 C-20.136699676513672,-29 -17,-25.863300323486328 -17,-22 C-17,-18.136699676513672 -20.136699676513672,-15 -24,-15 C-27.863300323486328,-15 -31,-18.136699676513672 -31,-22 C-31,-25.863300323486328 -27.863300323486328,-29 -24,-29z M-24,-34 C-17.377199172973633,-34 -12,-28.622800827026367 -12,-22 C-12,-15.37720012664795 -17.377199172973633,-10 -24,-10 C-30.622800827026367,-10 -36,-15.37720012664795 -36,-22 C-36,-28.622800827026367 -30.622800827026367,-34 -24,-34z"></path><path stroke-linecap="round" stroke-linejoin="round" fill-opacity="0" stroke="rgb(15,20,28)" stroke-opacity="1" stroke-width="2.2" d=" M-24,-34 C-17.377199172973633,-34 -12,-28.622800827026367 -12,-22 C-12,-15.37720012664795 -17.377199172973633,-10 -24,-10 C-30.622800827026367,-10 -36,-15.37720012664795 -36,-22 C-36,-28.622800827026367 -30.622800827026367,-34 -24,-34z"></path><path fill="rgb(224,147,76)" fill-opacity="1" d=" M-24,-34 C-17.377199172973633,-34 -12,-28.622800827026367 -12,-22 C-12,-15.37720012664795 -17.377199172973633,-10 -24,-10 C-30.622800827026367,-10 -36,-15.37720012664795 -36,-22 C-36,-28.622800827026367 -30.622800827026367,-34 -24,-34z"></path></g><g opacity="1" transform="matrix(1,0,0,1,0,0)"><path stroke-linecap="round" stroke-linejoin="round" fill-opacity="0" stroke="rgb(15,20,28)" stroke-opacity="1" stroke-width="2.6" d=" M0,17 C16.00510025024414,17 29,30.89109992980957 29,48 C29,65.10890197753906 16.00510025024414,79 0,79 C-16.00510025024414,79 -29,65.10890197753906 -29,48 C-29,30.89109992980957 -16.00510025024414,17 0,17z"></path><path fill="rgb(224,147,76)" fill-opacity="1" d=" M0,17 C16.00510025024414,17 29,30.89109992980957 29,48 C29,65.10890197753906 16.00510025024414,79 0,79 C-16.00510025024414,79 -29,65.10890197753906 -29,48 C-29,30.89109992980957 -16.00510025024414,17 0,17z"></path></g><g opacity="1" transform="matrix(0.9063078165054321,-0.4226182699203491,0.4226182699203491,0.9063078165054321,0,0)"><path fill="rgb(252,239,216)" fill-opacity="1" d=" M26,29 C28.75950050354004,29 31,32.13669967651367 31,36 C31,39.86330032348633 28.75950050354004,43 26,43 C23.24049949645996,43 21,39.86330032348633 21,36 C21,32.13669967651367 23.24049949645996,29 26,29z M26,23 C31.518999099731445,23 36,28.825300216674805 36,36 C36,43.17470169067383 31.518999099731445,49 26,49 C20.481000900268555,49 16,43.17470169067383 16,36 C16,28.825300216674805 20.481000900268555,23 26,23z"></path><path stroke-linecap="round" stroke-linejoin="round" fill-opacity="0" stroke="rgb(15,20,28)" stroke-opacity="1" stroke-width="2" d=" M26,23 C31.518999099731445,23 36,28.825300216674805 36,36 C36,43.17470169067383 31.518999099731445,49 26,49 C20.481000900268555,49 16,43.17470169067383 16,36 C16,28.825300216674805 20.481000900268555,23 26,23z"></path><path fill="rgb(224,147,76)" fill-opacity="1" d=" M26,23 C31.518999099731445,23 36,28.825300216674805 36,36 C36,43.17470169067383 31.518999099731445,49 26,49 C20.481000900268555,49 16,43.17470169067383 16,36 C16,28.825300216674805 20.481000900268555,23 26,23z"></path></g><g opacity="1" transform="matrix(0.9063078165054321,0.4226182699203491,-0.4226182699203491,0.9063078165054321,0,0)"><path fill="rgb(252,239,216)" fill-opacity="1" d=" M-26,29 C-23.24049949645996,29 -21,32.13669967651367 -21,36 C-21,39.86330032348633 -23.24049949645996,43 -26,43 C-28.75950050354004,43 -31,39.86330032348633 -31,36 C-31,32.13669967651367 -28.75950050354004,29 -26,29z M-26,23 C-20.481000900268555,23 -16,28.825300216674805 -16,36 C-16,43.17470169067383 -20.481000900268555,49 -26,49 C-31.518999099731445,49 -36,43.17470169067383 -36,36 C-36,28.825300216674805 -31.518999099731445,23 -26,23z"></path><path stroke-linecap="round" stroke-linejoin="round" fill-opacity="0" stroke="rgb(15,20,28)" stroke-opacity="1" stroke-width="2" d=" M-26,23 C-20.481000900268555,23 -16,28.825300216674805 -16,36 C-16,43.17470169067383 -20.481000900268555,49 -26,49 C-31.518999099731445,49 -36,43.17470169067383 -36,36 C-36,28.825300216674805 -31.518999099731445,23 -26,23z"></path><path fill="rgb(224,147,76)" fill-opacity="1" d=" M-26,23 C-20.481000900268555,23 -16,28.825300216674805 -16,36 C-16,43.17470169067383 -20.481000900268555,49 -26,49 C-31.518999099731445,49 -36,43.17470169067383 -36,36 C-36,28.825300216674805 -31.518999099731445,23 -26,23z"></path></g><g opacity="1" transform="matrix(1,0,0,1,0,0)"><path stroke-linecap="round" stroke-linejoin="round" fill-opacity="0" stroke="rgb(15,20,28)" stroke-opacity="1" stroke-width="1.8" d=" M0,27 C10.486100196838379,27 19,36.410099029541016 19,48 C19,59.589900970458984 10.486100196838379,69 0,69 C-10.486100196838379,69 -19,59.589900970458984 -19,48 C-19,36.410099029541016 -10.486100196838379,27 0,27z"></path><path fill="rgb(252,239,216)" fill-opacity="1" d=" M0,27 C10.486100196838379,27 19,36.410099029541016 19,48 C19,59.589900970458984 10.486100196838379,69 0,69 C-10.486100196838379,69 -19,59.589900970458984 -19,48 C-19,36.410099029541016 -10.486100196838379,27 0,27z"></path></g><g opacity="1" transform="matrix(1,0,0,1,0,0)"><path stroke-linecap="round" stroke-linejoin="round" fill-opacity="0" stroke="rgb(15,20,28)" stroke-opacity="1" stroke-width="2.6" d=" M0,-30 C17.66080093383789,-30 32,-16.55699920654297 32,0 C32,16.55699920654297 17.66080093383789,30 0,30 C-17.66080093383789,30 -32,16.55699920654297 -32,0 C-32,-16.55699920654297 -17.66080093383789,-30 0,-30z"></path><path fill="rgb(224,147,76)" fill-opacity="1" d=" M0,-30 C17.66080093383789,-30 32,-16.55699920654297 32,0 C32,16.55699920654297 17.66080093383789,30 0,30 C-17.66080093383789,30 -32,16.55699920654297 -32,0 C-32,-16.55699920654297 -17.66080093383789,-30 0,-30z"></path></g><g opacity="1" transform="matrix(1,0,0,1,0,0)"><path stroke-linecap="round" stroke-linejoin="round" fill-opacity="0" stroke="rgb(15,20,28)" stroke-opacity="1" stroke-width="1.6" d=" M6,25 C6,25 12,36 12,36 C12,36 4,32 4,32 C4,32 6,25 6,25z M-6,25 C-6,25 -12,36 -12,36 C-12,36 -4,32 -4,32 C-4,32 -6,25 -6,25z M0,17 C2.759500026702881,17 5,19.24049949645996 5,22 C5,24.75950050354004 2.759500026702881,27 0,27 C-2.759500026702881,27 -5,24.75950050354004 -5,22 C-5,19.24049949645996 -2.759500026702881,17 0,17z M0,20 C0,20 18,12 18,12 C18,12 22,28 22,28 C22,28 0,24 0,24 C0,24 0,20 0,20z M0,20 C0,20 -18,12 -18,12 C-18,12 -22,28 -22,28 C-22,28 0,24 0,24 C0,24 0,20 0,20z"></path><path fill="rgb(244,51,71)" fill-opacity="1" d=" M6,25 C6,25 12,36 12,36 C12,36 4,32 4,32 C4,32 6,25 6,25z M-6,25 C-6,25 -12,36 -12,36 C-12,36 -4,32 -4,32 C-4,32 -6,25 -6,25z M0,17 C2.759500026702881,17 5,19.24049949645996 5,22 C5,24.75950050354004 2.759500026702881,27 0,27 C-2.759500026702881,27 -5,24.75950050354004 -5,22 C-5,19.24049949645996 -2.759500026702881,17 0,17z M0,20 C0,20 18,12 18,12 C18,12 22,28 22,28 C22,28 0,24 0,24 C0,24 0,20 0,20z M0,20 C0,20 -18,12 -18,12 C-18,12 -22,28 -22,28 C-22,28 0,24 0,24 C0,24 0,20 0,20z"></path><path stroke-linecap="round" stroke-linejoin="round" fill-opacity="0" stroke="rgb(15,20,28)" stroke-opacity="1" stroke-width="1.6" d=" M-6,25 C-6,25 -12,36 -12,36 C-12,36 -4,32 -4,32 C-4,32 -6,25 -6,25z M0,17 C2.759500026702881,17 5,19.24049949645996 5,22 C5,24.75950050354004 2.759500026702881,27 0,27 C-2.759500026702881,27 -5,24.75950050354004 -5,22 C-5,19.24049949645996 -2.759500026702881,17 0,17z M0,20 C0,20 18,12 18,12 C18,12 22,28 22,28 C22,28 0,24 0,24 C0,24 0,20 0,20z M0,20 C0,20 -18,12 -18,12 C-18,12 -22,28 -22,28 C-22,28 0,24 0,24 C0,24 0,20 0,20z"></path><path fill="rgb(244,51,71)" fill-opacity="1" d=" M-6,25 C-6,25 -12,36 -12,36 C-12,36 -4,32 -4,32 C-4,32 -6,25 -6,25z M0,17 C2.759500026702881,17 5,19.24049949645996 5,22 C5,24.75950050354004 2.759500026702881,27 0,27 C-2.759500026702881,27 -5,24.75950050354004 -5,22 C-5,19.24049949645996 -2.759500026702881,17 0,17z M0,20 C0,20 18,12 18,12 C18,12 22,28 22,28 C22,28 0,24 0,24 C0,24 0,20 0,20z M0,20 C0,20 -18,12 -18,12 C-18,12 -22,28 -22,28 C-22,28 0,24 0,24 C0,24 0,20 0,20z"></path><path stroke-linecap="round" stroke-linejoin="round" fill-opacity="0" stroke="rgb(15,20,28)" stroke-opacity="1" stroke-width="1.8" d=" M0,17 C2.759500026702881,17 5,19.24049949645996 5,22 C5,24.75950050354004 2.759500026702881,27 0,27 C-2.759500026702881,27 -5,24.75950050354004 -5,22 C-5,19.24049949645996 -2.759500026702881,17 0,17z M0,20 C0,20 18,12 18,12 C18,12 22,28 22,28 C22,28 0,24 0,24 C0,24 0,20 0,20z M0,20 C0,20 -18,12 -18,12 C-18,12 -22,28 -22,28 C-22,28 0,24 0,24 C0,24 0,20 0,20z"></path><path fill="rgb(173,20,35)" fill-opacity="1" d=" M0,17 C2.759500026702881,17 5,19.24049949645996 5,22 C5,24.75950050354004 2.759500026702881,27 0,27 C-2.759500026702881,27 -5,24.75950050354004 -5,22 C-5,19.24049949645996 -2.759500026702881,17 0,17z M0,20 C0,20 18,12 18,12 C18,12 22,28 22,28 C22,28 0,24 0,24 C0,24 0,20 0,20z M0,20 C0,20 -18,12 -18,12 C-18,12 -22,28 -22,28 C-22,28 0,24 0,24 C0,24 0,20 0,20z"></path><path stroke-linecap="round" stroke-linejoin="round" fill-opacity="0" stroke="rgb(15,20,28)" stroke-opacity="1" stroke-width="2" d=" M0,20 C0,20 18,12 18,12 C18,12 22,28 22,28 C22,28 0,24 0,24 C0,24 0,20 0,20z M0,20 C0,20 -18,12 -18,12 C-18,12 -22,28 -22,28 C-22,28 0,24 0,24 C0,24 0,20 0,20z"></path><path fill="rgb(244,51,71)" fill-opacity="1" d=" M0,20 C0,20 18,12 18,12 C18,12 22,28 22,28 C22,28 0,24 0,24 C0,24 0,20 0,20z M0,20 C0,20 -18,12 -18,12 C-18,12 -22,28 -22,28 C-22,28 0,24 0,24 C0,24 0,20 0,20z"></path><path stroke-linecap="round" stroke-linejoin="round" fill-opacity="0" stroke="rgb(15,20,28)" stroke-opacity="1" stroke-width="2" d=" M0,20 C0,20 -18,12 -18,12 C-18,12 -22,28 -22,28 C-22,28 0,24 0,24 C0,24 0,20 0,20z"></path><path fill="rgb(244,51,71)" fill-opacity="1" d=" M0,20 C0,20 -18,12 -18,12 C-18,12 -22,28 -22,28 C-22,28 0,24 0,24 C0,24 0,20 0,20z"></path></g><g opacity="1" transform="matrix(1,0,0,1,0,0)"><path stroke-linecap="round" stroke-linejoin="round" fill-opacity="0" stroke="rgb(15,20,28)" stroke-opacity="1" stroke-width="2" d=" M0,-6 C9.934200286865234,-6 18,-0.17470000684261322 18,7 C18,14.174699783325195 9.934200286865234,20 0,20 C-9.934200286865234,20 -18,14.174699783325195 -18,7 C-18,-0.17470000684261322 -9.934200286865234,-6 0,-6z"></path><path fill="rgb(252,239,216)" fill-opacity="1" d=" M0,-6 C9.934200286865234,-6 18,-0.17470000684261322 18,7 C18,14.174699783325195 9.934200286865234,20 0,20 C-9.934200286865234,20 -18,14.174699783325195 -18,7 C-18,-0.17470000684261322 -9.934200286865234,-6 0,-6z"></path></g><g opacity="1" transform="matrix(1,0,0,1,0,0)"><path fill="rgb(249,158,183)" fill-opacity="1" d=" M0,12 C1.3797500133514404,12 2.5,12.896200180053711 2.5,14 C2.5,15.103799819946289 1.3797500133514404,16 0,16 C-1.3797500133514404,16 -2.5,15.103799819946289 -2.5,14 C-2.5,12.896200180053711 -1.3797500133514404,12 0,12z M-6,10 C-6,10 -2,15 0,15 C2,15 6,10 6,10 M0,5 C0,5 0,10 0,10 M0,-3.5 C3.3113999366760254,-3.5 6,-1.483549952507019 6,1 C6,3.4835500717163086 3.3113999366760254,5.5 0,5.5 C-3.3113999366760254,5.5 -6,3.4835500717163086 -6,1 C-6,-1.483549952507019 -3.3113999366760254,-3.5 0,-3.5z"></path><path stroke-linecap="round" stroke-linejoin="round" fill-opacity="0" stroke="rgb(30,20,15)" stroke-opacity="1" stroke-width="2.2" d=" M-6,10 C-6,10 -2,15 0,15 C2,15 6,10 6,10 M0,5 C0,5 0,10 0,10 M0,-3.5 C3.3113999366760254,-3.5 6,-1.483549952507019 6,1 C6,3.4835500717163086 3.3113999366760254,5.5 0,5.5 C-3.3113999366760254,5.5 -6,3.4835500717163086 -6,1 C-6,-1.483549952507019 -3.3113999366760254,-3.5 0,-3.5z"></path><path stroke-linecap="round" stroke-linejoin="round" fill-opacity="0" stroke="rgb(30,20,15)" stroke-opacity="1" stroke-width="2" d=" M0,5 C0,5 0,10 0,10 M0,-3.5 C3.3113999366760254,-3.5 6,-1.483549952507019 6,1 C6,3.4835500717163086 3.3113999366760254,5.5 0,5.5 C-3.3113999366760254,5.5 -6,3.4835500717163086 -6,1 C-6,-1.483549952507019 -3.3113999366760254,-3.5 0,-3.5z"></path><path fill="rgb(30,20,15)" fill-opacity="1" d=" M0,-3.5 C3.3113999366760254,-3.5 6,-1.483549952507019 6,1 C6,3.4835500717163086 3.3113999366760254,5.5 0,5.5 C-3.3113999366760254,5.5 -6,3.4835500717163086 -6,1 C-6,-1.483549952507019 -3.3113999366760254,-3.5 0,-3.5z"></path></g><g opacity="1" transform="matrix(1,0,0,1,0,0)"><path fill="rgb(30,20,15)" fill-opacity="1" d=" M12,-11 C14.759499549865723,-11 17,-8.759499549865723 17,-6 C17,-3.240499973297119 14.759499549865723,-1 12,-1 C9.240500450134277,-1 7,-3.240499973297119 7,-6 C7,-8.759499549865723 9.240500450134277,-11 12,-11z"></path></g><g opacity="1" transform="matrix(1,0,0,1,0,0)"><path fill="rgb(30,20,15)" fill-opacity="1" d=" M-12,-11 C-9.240500450134277,-11 -7,-8.759499549865723 -7,-6 C-7,-3.240499973297119 -9.240500450134277,-1 -12,-1 C-14.759499549865723,-1 -17,-3.240499973297119 -17,-6 C-17,-8.759499549865723 -14.759499549865723,-11 -12,-11z"></path></g><g opacity="1" transform="matrix(1,0,0,1,0,0)"><path fill="rgb(255,255,255)" fill-opacity="1" d=" M13,-6 C13.551899909973145,-6 14,-5.5518999099731445 14,-5 C14,-4.4481000900268555 13.551899909973145,-4 13,-4 C12.448100090026855,-4 12,-4.4481000900268555 12,-5 C12,-5.5518999099731445 12.448100090026855,-6 13,-6z M10,-9.75 C10.965825080871582,-9.75 11.75,-8.965825080871582 11.75,-8 C11.75,-7.034174919128418 10.965825080871582,-6.25 10,-6.25 C9.034174919128418,-6.25 8.25,-7.034174919128418 8.25,-8 C8.25,-8.965825080871582 9.034174919128418,-9.75 10,-9.75z M-11,-6 C-10.448100090026855,-6 -10,-5.5518999099731445 -10,-5 C-10,-4.4481000900268555 -10.448100090026855,-4 -11,-4 C-11.551899909973145,-4 -12,-4.4481000900268555 -12,-5 C-12,-5.5518999099731445 -11.551899909973145,-6 -11,-6z M-14,-9.75 C-13.034174919128418,-9.75 -12.25,-8.965825080871582 -12.25,-8 C-12.25,-7.034174919128418 -13.034174919128418,-6.25 -14,-6.25 C-14.965825080871582,-6.25 -15.75,-7.034174919128418 -15.75,-8 C-15.75,-8.965825080871582 -14.965825080871582,-9.75 -14,-9.75z"></path><path fill="rgb(255,255,255)" fill-opacity="1" d=" M10,-9.75 C10.965825080871582,-9.75 11.75,-8.965825080871582 11.75,-8 C11.75,-7.034174919128418 10.965825080871582,-6.25 10,-6.25 C9.034174919128418,-6.25 8.25,-7.034174919128418 8.25,-8 C8.25,-8.965825080871582 9.034174919128418,-9.75 10,-9.75z M-11,-6 C-10.448100090026855,-6 -10,-5.5518999099731445 -10,-5 C-10,-4.4481000900268555 -10.448100090026855,-4 -11,-4 C-11.551899909973145,-4 -12,-4.4481000900268555 -12,-5 C-12,-5.5518999099731445 -11.551899909973145,-6 -11,-6z M-14,-9.75 C-13.034174919128418,-9.75 -12.25,-8.965825080871582 -12.25,-8 C-12.25,-7.034174919128418 -13.034174919128418,-6.25 -14,-6.25 C-14.965825080871582,-6.25 -15.75,-7.034174919128418 -15.75,-8 C-15.75,-8.965825080871582 -14.965825080871582,-9.75 -14,-9.75z"></path><path fill="rgb(255,255,255)" fill-opacity="1" d=" M-11,-6 C-10.448100090026855,-6 -10,-5.5518999099731445 -10,-5 C-10,-4.4481000900268555 -10.448100090026855,-4 -11,-4 C-11.551899909973145,-4 -12,-4.4481000900268555 -12,-5 C-12,-5.5518999099731445 -11.551899909973145,-6 -11,-6z M-14,-9.75 C-13.034174919128418,-9.75 -12.25,-8.965825080871582 -12.25,-8 C-12.25,-7.034174919128418 -13.034174919128418,-6.25 -14,-6.25 C-14.965825080871582,-6.25 -15.75,-7.034174919128418 -15.75,-8 C-15.75,-8.965825080871582 -14.965825080871582,-9.75 -14,-9.75z"></path><path fill="rgb(255,255,255)" fill-opacity="1" d=" M-14,-9.75 C-13.034174919128418,-9.75 -12.25,-8.965825080871582 -12.25,-8 C-12.25,-7.034174919128418 -13.034174919128418,-6.25 -14,-6.25 C-14.965825080871582,-6.25 -15.75,-7.034174919128418 -15.75,-8 C-15.75,-8.965825080871582 -14.965825080871582,-9.75 -14,-9.75z"></path></g></g><g transform="matrix(0.9328529238700867,-0.5829111933708191,0.5829111933708191,0.9328529238700867,390,105)" opacity="1" style="display: block;"><g opacity="1" transform="matrix(1,0,0,1,0,0)"><path fill="rgb(255,255,216)" fill-opacity="1" d=" M-4,32 C-4,32 0,44 0,44 C0,44 4,32 4,32 C4,32 -4,32 -4,32z"></path></g><g opacity="1" transform="matrix(1,0,0,1,0,0)"><path fill="rgb(255,234,63)" fill-opacity="1" d=" M-8,32 C-4,42 -4,48 0,58 C0,58 8,32 8,32 C8,32 -8,32 -8,32z"></path></g><g opacity="1" transform="matrix(1,0,0,1,0,0)"><path stroke-linecap="round" stroke-linejoin="round" fill-opacity="0" stroke="rgb(15,20,28)" stroke-opacity="1" stroke-width="1.8" d=" M-12,32 C-6,46 -6,58 0,72 C0,72 12,32 12,32 C12,32 -12,32 -12,32z"></path><path fill="rgb(255,107,12)" fill-opacity="1" d=" M-12,32 C-6,46 -6,58 0,72 C0,72 12,32 12,32 C12,32 -12,32 -12,32z"></path></g><g opacity="1" transform="matrix(1,0,0,1,0,0)"><path stroke-linecap="round" stroke-linejoin="round" fill-opacity="0" stroke="rgb(244,183,40)" stroke-opacity="1" stroke-width="1.8" d=" M38,34 C38,34 38,42 38,42 M18,12 C18,12 38,36 38,36 C38,36 18,28 18,28 C18,28 18,12 18,12z"></path><path stroke-linecap="round" stroke-linejoin="round" fill-opacity="0" stroke="rgb(15,20,28)" stroke-opacity="1" stroke-width="2" d=" M18,12 C18,12 38,36 38,36 C38,36 18,28 18,28 C18,28 18,12 18,12z"></path><path fill="rgb(244,51,56)" fill-opacity="1" d=" M18,12 C18,12 38,36 38,36 C38,36 18,28 18,28 C18,28 18,12 18,12z"></path></g><g opacity="1" transform="matrix(1,0,0,1,0,0)"><path stroke-linecap="round" stroke-linejoin="round" fill-opacity="0" stroke="rgb(244,183,40)" stroke-opacity="1" stroke-width="1.8" d=" M-38,34 C-38,34 -38,42 -38,42 M-18,12 C-18,12 -38,36 -38,36 C-38,36 -18,28 -18,28 C-18,28 -18,12 -18,12z"></path><path stroke-linecap="round" stroke-linejoin="round" fill-opacity="0" stroke="rgb(15,20,28)" stroke-opacity="1" stroke-width="2" d=" M-18,12 C-18,12 -38,36 -38,36 C-38,36 -18,28 -18,28 C-18,28 -18,12 -18,12z"></path><path fill="rgb(244,51,56)" fill-opacity="1" d=" M-18,12 C-18,12 -38,36 -38,36 C-38,36 -18,28 -18,28 C-18,28 -18,12 -18,12z"></path></g><g opacity="1" transform="matrix(1,0,0,1,0,0)"><path stroke-linecap="round" stroke-linejoin="round" fill-opacity="0" stroke="rgb(15,20,28)" stroke-opacity="1" stroke-width="2.4" d=" M0,-58 C10,-40 23,-2 20,16 C20,16 17,34 17,34 C11,33 6,31 0,30 C0,30 -17,34 -17,34 C-17,34 -23,26 -20,16 C-23,-2 0,-58 0,-58z"></path><path fill="rgb(242,247,255)" fill-opacity="1" d=" M0,-58 C10,-40 23,-2 20,16 C20,16 17,34 17,34 C11,33 6,31 0,30 C0,30 -17,34 -17,34 C-17,34 -23,26 -20,16 C-23,-2 0,-58 0,-58z"></path></g><g opacity="1" transform="matrix(1,0,0,1,0,0)"><path stroke-linecap="round" stroke-linejoin="round" fill-opacity="0" stroke="rgb(15,20,28)" stroke-opacity="1" stroke-width="1.8" d=" M-15,-4 C-15,-4 15,-4 15,-4 C15,-4 17,6 17,6 C17,6 -17,6 -17,6 C-17,6 -15,-4 -15,-4z"></path><path fill="rgb(244,51,56)" fill-opacity="1" d=" M-15,-4 C-15,-4 15,-4 15,-4 C15,-4 17,6 17,6 C17,6 -17,6 -17,6 C-17,6 -15,-4 -15,-4z"></path></g><g opacity="1" transform="matrix(1,0,0,1,0,0)"><path stroke-linecap="round" stroke-linejoin="round" fill-opacity="0" stroke="rgb(15,20,28)" stroke-opacity="1" stroke-width="2.2" d=" M0,-58 C5,-48 15,-40 13,-30 C13,-30 5,-25 0,-26 C-5,-27 -15,-32 -13,-30 C-11,-40 0,-58 0,-58z"></path><path fill="rgb(244,51,56)" fill-opacity="1" d=" M0,-58 C5,-48 15,-40 13,-30 C13,-30 5,-25 0,-26 C-5,-27 -15,-32 -13,-30 C-11,-40 0,-58 0,-58z"></path></g><g opacity="1" transform="matrix(1,0,0,1,0,0)"><path fill="rgb(255,114,127)" fill-opacity="1" d=" M-4,-46 C-4,-46 0,-56 0,-56 C0,-56 0,-32 0,-32 C0,-32 -6,-34 -6,-34 C-6,-34 -4,-46 -4,-46z"></path></g><g opacity="1" transform="matrix(1,0,0,1,0,0)"><path stroke-linecap="round" stroke-linejoin="round" fill-opacity="0" stroke="rgb(15,20,28)" stroke-opacity="1" stroke-width="2.2" d=" M0,-25 C6.622799873352051,-25 12,-18.278499603271484 12,-10 C12,-1.721500039100647 6.622799873352051,5 0,5 C-6.622799873352051,5 -12,-1.721500039100647 -12,-10 C-12,-18.278499603271484 -6.622799873352051,-25 0,-25z"></path><path fill="rgb(244,183,40)" fill-opacity="1" d=" M0,-25 C6.622799873352051,-25 12,-18.278499603271484 12,-10 C12,-1.721500039100647 6.622799873352051,5 0,5 C-6.622799873352051,5 -12,-1.721500039100647 -12,-10 C-12,-18.278499603271484 -6.622799873352051,-25 0,-25z"></path></g><g opacity="1" transform="matrix(1,0,0,1,0,0)"><path stroke-linecap="round" stroke-linejoin="round" fill-opacity="0" stroke="rgb(15,20,28)" stroke-opacity="1" stroke-width="1.8" d=" M0,-22 C4.967100143432617,-22 9,-16.622800827026367 9,-10 C9,-3.37719988822937 4.967100143432617,2 0,2 C-4.967100143432617,2 -9,-3.37719988822937 -9,-10 C-9,-16.622800827026367 -4.967100143432617,-22 0,-22z"></path><path fill="rgb(38,224,255)" fill-opacity="1" d=" M0,-22 C4.967100143432617,-22 9,-16.622800827026367 9,-10 C9,-3.37719988822937 4.967100143432617,2 0,2 C-4.967100143432617,2 -9,-3.37719988822937 -9,-10 C-9,-16.622800827026367 -4.967100143432617,-22 0,-22z"></path></g><g opacity="1" transform="matrix(1,0,0,1,0,0)"><path stroke-linecap="round" stroke-linejoin="round" fill-opacity="0" stroke="rgb(255,255,255)" stroke-opacity="1" stroke-width="2" d=" M-4,-14 C-2,-15 0,-18 2,-18 C4,-18 6,-12 6,-12"></path></g></g><g style="display: none;"><g><path stroke-linecap="round" stroke-linejoin="round" fill-opacity="0"></path><path></path></g><g><path stroke-linecap="round" stroke-linejoin="round" fill-opacity="0"></path><path></path></g><g><path stroke-linecap="round" stroke-linejoin="round" fill-opacity="0"></path><path></path></g><g><path stroke-linecap="round" stroke-linejoin="round" fill-opacity="0"></path><path></path></g><g><path stroke-linecap="round" stroke-linejoin="round" fill-opacity="0"></path><path></path></g><g><path stroke-linecap="round" stroke-linejoin="round" fill-opacity="0"></path><path></path></g><g><path stroke-linecap="round" stroke-linejoin="round" fill-opacity="0"></path><path></path></g><g><path stroke-linecap="round" stroke-linejoin="round" fill-opacity="0"></path><path></path></g><g><path stroke-linecap="round" stroke-linejoin="round" fill-opacity="0"></path><path></path></g><g><path stroke-linecap="round" stroke-linejoin="round" fill-opacity="0"></path><path></path></g><g><path stroke-linecap="round" stroke-linejoin="round" fill-opacity="0"></path><path></path></g><g><path stroke-linecap="round" stroke-linejoin="round" fill-opacity="0"></path><path></path></g><g><path stroke-linecap="round" stroke-linejoin="round" fill-opacity="0"></path><path></path></g><g><path stroke-linecap="round" stroke-linejoin="round" fill-opacity="0"></path><path></path></g><g><path stroke-linecap="round" stroke-linejoin="round" fill-opacity="0"></path><path></path></g><g><path stroke-linecap="round" stroke-linejoin="round" fill-opacity="0"></path><path></path></g><g><path stroke-linecap="round" stroke-linejoin="round" fill-opacity="0"></path><path></path></g><g><path stroke-linecap="round" stroke-linejoin="round" fill-opacity="0"></path><path></path></g><g><path stroke-linecap="round" stroke-linejoin="round" fill-opacity="0"></path><path></path></g><g><path stroke-linecap="round" stroke-linejoin="round" fill-opacity="0"></path><path></path></g><g><path stroke-linecap="round" stroke-linejoin="round" fill-opacity="0"></path><path></path></g><g><path stroke-linecap="round" stroke-linejoin="round" fill-opacity="0"></path><path></path></g><g><path stroke-linecap="round" stroke-linejoin="round" fill-opacity="0"></path><path></path></g><g><path stroke-linecap="round" stroke-linejoin="round" fill-opacity="0"></path><path></path></g><g><path stroke-linecap="round" stroke-linejoin="round" fill-opacity="0"></path><path></path></g><g><path stroke-linecap="round" stroke-linejoin="round" fill-opacity="0"></path><path></path></g><g><path stroke-linecap="round" stroke-linejoin="round" fill-opacity="0"></path><path></path></g><g><path stroke-linecap="round" stroke-linejoin="round" fill-opacity="0"></path><path></path></g><g><path stroke-linecap="round" stroke-linejoin="round" fill-opacity="0"></path><path></path></g><g><path stroke-linecap="round" stroke-linejoin="round" fill-opacity="0"></path><path></path></g><g><path stroke-linecap="round" stroke-linejoin="round" fill-opacity="0"></path><path></path></g><g><path stroke-linecap="round" stroke-linejoin="round" fill-opacity="0"></path><path></path></g><g><path stroke-linecap="round" stroke-linejoin="round" fill-opacity="0"></path><path></path></g><g><path stroke-linecap="round" stroke-linejoin="round" fill-opacity="0"></path><path></path></g><g><path stroke-linecap="round" stroke-linejoin="round" fill-opacity="0"></path><path></path></g><g><path stroke-linecap="round" stroke-linejoin="round" fill-opacity="0"></path><path></path></g><g><path stroke-linecap="round" stroke-linejoin="round" fill-opacity="0"></path><path></path></g><g><path stroke-linecap="round" stroke-linejoin="round" fill-opacity="0"></path><path></path></g><g><path stroke-linecap="round" stroke-linejoin="round" fill-opacity="0"></path><path></path></g><g><path stroke-linecap="round" stroke-linejoin="round" fill-opacity="0"></path><path></path></g><g><path stroke-linecap="round" stroke-linejoin="round" fill-opacity="0"></path><path></path></g><g><path stroke-linecap="round" stroke-linejoin="round" fill-opacity="0"></path><path></path></g><g><path stroke-linecap="round" stroke-linejoin="round" fill-opacity="0"></path><path></path></g><g><path stroke-linecap="round" stroke-linejoin="round" fill-opacity="0"></path><path></path></g><g><path stroke-linecap="round" stroke-linejoin="round" fill-opacity="0"></path><path></path></g><g><path stroke-linecap="round" stroke-linejoin="round" fill-opacity="0"></path><path></path></g><g><path stroke-linecap="round" stroke-linejoin="round" fill-opacity="0"></path><path></path></g><g><path stroke-linecap="round" stroke-linejoin="round" fill-opacity="0"></path><path></path></g></g><g style="display: none;"><g><path stroke-linecap="round" stroke-linejoin="round" fill-opacity="0"></path></g><g><path stroke-linecap="round" stroke-linejoin="round" fill-opacity="0"></path></g><g><path stroke-linecap="round" stroke-linejoin="round" fill-opacity="0"></path></g><g><path stroke-linecap="round" stroke-linejoin="round" fill-opacity="0"></path></g><g><path stroke-linecap="round" stroke-linejoin="round" fill-opacity="0"></path></g><g><path stroke-linecap="round" stroke-linejoin="round" fill-opacity="0"></path></g><g><path stroke-linecap="round" stroke-linejoin="round" fill-opacity="0"></path></g><g><path stroke-linecap="round" stroke-linejoin="round" fill-opacity="0"></path></g><g><path stroke-linecap="round" stroke-linejoin="round" fill-opacity="0"></path></g><g><path stroke-linecap="round" stroke-linejoin="round" fill-opacity="0"></path></g><g><path stroke-linecap="round" stroke-linejoin="round" fill-opacity="0"></path></g><g><path stroke-linecap="round" stroke-linejoin="round" fill-opacity="0"></path></g><g><path></path></g><g><path></path><path></path><path></path><path></path><path stroke-linecap="round" stroke-linejoin="round" fill-opacity="0"></path><path></path></g><g><g><path></path></g><g><path stroke-linecap="round" stroke-linejoin="round" fill-opacity="0"></path><path></path></g><g><path></path></g><g><path stroke-linecap="round" stroke-linejoin="round" fill-opacity="0"></path></g><g><g><path stroke-linecap="round" stroke-linejoin="round" fill-opacity="0"></path></g><g><path stroke-linecap="round" stroke-linejoin="round" fill-opacity="0"></path></g><g><path stroke-linecap="round" stroke-linejoin="round" fill-opacity="0"></path></g></g></g></g></g></svg>
