<svg xmlns="http://www.w3.org/2000/svg" viewBox="0 0 1024 500">
  <defs>
    <linearGradient id="bgGrad" x1="0%" y1="0%" x2="100%" y2="100%">
      <stop offset="0%" style="stop-color:#5ab88a;stop-opacity:1" />
      <stop offset="100%" style="stop-color:#3d8a68;stop-opacity:1" />
    </linearGradient>
  </defs>

  <!-- Background -->
  <rect width="1024" height="500" fill="url(#bgGrad)"/>

  <!-- Decorative circles -->
  <circle cx="100" cy="400" r="150" fill="white" opacity="0.05"/>
  <circle cx="924" cy="100" r="200" fill="white" opacity="0.05"/>
  <circle cx="512" cy="250" r="300" fill="white" opacity="0.03"/>

  <!-- Leaf icon -->
  <g transform="translate(120, 150) scale(8)"
     fill="none"
     stroke="white"
     stroke-width="2"
     stroke-linecap="round"
     stroke-linejoin="round"
     opacity="0.9">
    <path d="M11 20A7 7 0 0 1 9.8 6.1C15.5 5 17 4.48 19 2c1 2 2 4.18 2 8 0 5.5-4.78 10-10 10Z"/>
    <path d="M2 21c0-3 1.85-5.36 5.08-6C9.5 14.52 12 13 13 12"/>
  </g>

  <!-- App name -->
  <text x="380" y="220" font-family="Arial, sans-serif" font-size="72" font-weight="bold" fill="white">ZenFlow</text>

  <!-- Tagline -->
  <text x="380" y="290" font-family="Arial, sans-serif" font-size="28" fill="white" opacity="0.9">Habits • Mood • Focus • Gratitude</text>

  <!-- Features -->
  <text x="380" y="360" font-family="Arial, sans-serif" font-size="20" fill="white" opacity="0.7">Build mindful daily routines</text>
</svg>
