<svg xmlns="http://www.w3.org/2000/svg" viewBox="0 0 256 256" role="img" aria-label="Read" data-source="zenflow-original-lottie/read-book-page-turn-v91" data-icon-id="read"><ellipse cx="128" cy="202" rx="94" ry="14" fill="#10231f" opacity=".16"/><path d="M27 76c35-10 71-5 101 10v111c-31-16-68-21-101-8V76Z" fill="#0b7280" stroke="#10231f" stroke-width="6" stroke-linejoin="round"/><path d="M229 76c-35-10-71-5-101 10v111c31-16 68-21 101-8V76Z" fill="#1595a3" stroke="#10231f" stroke-width="6" stroke-linejoin="round"/><path d="M45 69c31-7 59-3 83 15v94c-26-15-55-18-83-8V69Z" fill="#fff8e6" stroke="#62716c" stroke-width="4"/><path d="M211 69c-31-7-59-3-83 15v94c26-15 55-18 83-8V69Z" fill="#edf7f2" stroke="#62716c" stroke-width="4"/><path d="M132 76c38-17 74-6 82 31 8 43-24 78-82 94V76Z" fill="#fff7dc" stroke="#203731" stroke-width="5"/><path d="M128 82c-5 34-5 78 0 116" fill="none" stroke="#10231f" stroke-width="6" stroke-linecap="round"/><path d="M58 96c22-5 42-2 60 7M58 115c23-5 41-2 59 7M58 134c21-4 40-1 58 7M146 99c21-7 41-9 58-4M146 118c21-7 40-9 57-4M146 137c20-6 38-8 55-3" fill="none" stroke="#7d8986" stroke-width="5" stroke-linecap="round"/><path d="M121 178h14l-4 29-3-6-4 6-3-29Z" fill="#e7bc33" stroke="#4b3d09" stroke-width="3"/><ellipse cx="128" cy="198" rx="15" ry="7" fill="#e7bc33" stroke="#4b3d09" stroke-width="3"/></svg>
